<svg width="6" height="9" viewBox="0 0 6 9" fill="none" xmlns="http://www.w3.org/2000/svg">
<path d="M0.75 4.10156L3.9375 0.914062C4.04688 0.804687 4.17969 0.75 4.33594 0.75C4.49219 0.75 4.625 0.804687 4.73438 0.914062L5.25 1.45312C5.35938 1.5625 5.41406 1.69531 5.41406 1.85156C5.41406 2.00781 5.35938 2.14062 5.25 2.25L3 4.5L5.25 6.75C5.32812 6.82812 5.375 6.91406 5.39062 7.00781C5.42188 7.10156 5.42188 7.20312 5.39062 7.3125C5.375 7.40625 5.32812 7.48438 5.25 7.54688L4.73438 8.08594C4.625 8.19531 4.49219 8.25 4.33594 8.25C4.17969 8.25 4.04688 8.19531 3.9375 8.08594L0.75 4.89844C0.640625 4.78906 0.585938 4.65625 0.585938 4.5C0.585938 4.34375 0.640625 4.21094 0.75 4.10156Z" fill="black"/>
</svg>
