<svg width="41" height="43" viewBox="0 0 41 43" fill="none" xmlns="http://www.w3.org/2000/svg">
<path d="M7.69228 6.35021C7.49319 6.35021 7.32124 6.22321 7.26694 6.04177C6.94115 5.08017 6.30767 4.24557 5.46604 3.68312L5.26694 3.54705C5.21265 3.51076 5.17645 3.47447 5.14025 3.42004C5.0045 3.21139 5.0588 2.93017 5.26694 2.79409L5.46604 2.65802C6.30767 2.10464 6.94115 1.27004 7.26694 0.308439C7.31219 0.172363 7.42079 0.0635021 7.55654 0.0181435C7.59273 0.00907173 7.64703 0 7.69228 0C7.89138 0 8.06332 0.127004 8.11762 0.308439C8.43436 1.26097 9.0769 2.10464 9.90948 2.65802L10.1086 2.79409C10.1629 2.83038 10.1991 2.86667 10.2353 2.9211C10.2986 3.02089 10.3258 3.13882 10.2986 3.26582C10.2715 3.39283 10.2081 3.48354 10.1086 3.55612L9.90948 3.69219C9.0769 4.25464 8.43436 5.08924 8.11762 6.04177C8.07237 6.17785 7.96377 6.28671 7.82803 6.33207C7.79183 6.34114 7.73753 6.35021 7.69228 6.35021ZM7.46604 1.92321C7.20359 2.31329 6.8959 2.65802 6.55201 2.96646L6.32577 3.17511L6.55201 3.37468C6.8959 3.68312 7.20359 4.03692 7.46604 4.41793L7.69228 4.75359L7.91853 4.41793C8.18097 4.02785 8.48866 3.68312 8.83255 3.37468L9.0588 3.17511L8.83255 2.97553C8.48866 2.66709 8.18097 2.31329 7.91853 1.93228L7.69228 1.58755L7.46604 1.92321Z" fill="#86A1BA"/>
<path d="M3.3484 11.0675C3.1493 11.0675 2.97735 10.9405 2.92306 10.7591C2.59726 9.79745 1.96378 8.96285 1.12215 8.4004L0.923054 8.26433C0.868755 8.22804 0.832556 8.19175 0.796357 8.13732C0.66061 7.92867 0.714909 7.64745 0.923054 7.51137L1.12215 7.3753C1.95473 6.81285 2.59726 5.97825 2.91401 5.02572C2.95925 4.88964 3.06785 4.78078 3.2036 4.73542C3.24885 4.71728 3.2941 4.70821 3.3484 4.70821C3.54749 4.70821 3.71944 4.83521 3.77374 5.01665C4.09953 5.98732 4.73301 6.82192 5.57464 7.38437L5.77374 7.52045C5.82803 7.55673 5.86423 7.59302 5.90043 7.64745C5.96378 7.74724 5.99093 7.86517 5.96378 7.99218C5.93663 8.11918 5.87328 8.2099 5.77374 8.28247L5.57464 8.41855C4.74206 8.981 4.09953 9.8156 3.78278 10.7681C3.73754 10.9042 3.62894 11.0131 3.49319 11.0584C3.44794 11.0584 3.39364 11.0675 3.3484 11.0675ZM3.12215 6.64049C2.85971 7.03057 2.55201 7.3753 2.20812 7.68374L1.98188 7.89239L2.20812 8.09197C2.55201 8.4004 2.85971 8.7542 3.12215 9.13522L3.3484 9.47087L3.57464 9.13522C3.83708 8.74513 4.14478 8.4004 4.48867 8.09197L4.71491 7.89239L4.48867 7.69281C4.14478 7.38437 3.83708 7.03057 3.57464 6.64956L3.3484 6.30483L3.12215 6.64049Z" fill="#86A1BA"/>
<path d="M4.0724 28.4852C3.819 28.4852 3.61991 28.2857 3.61991 28.0316C3.61991 27.7776 3.819 27.5781 4.0724 27.5781H4.79638C5.04977 27.5781 5.24887 27.7776 5.24887 28.0316C5.24887 28.2857 5.04977 28.4852 4.79638 28.4852H4.0724Z" fill="#86A1BA"/>
<path d="M4.0724 34.2911C3.819 34.2911 3.61991 34.0916 3.61991 33.8376C3.61991 33.5835 3.819 33.384 4.0724 33.384H4.79638C5.04977 33.384 5.24887 33.5835 5.24887 33.8376C5.24887 34.0916 5.04977 34.2911 4.79638 34.2911H4.0724Z" fill="#86A1BA"/>
<path d="M4.0724 40.097C3.819 40.097 3.61991 39.8975 3.61991 39.6435C3.61991 39.3895 3.819 39.1899 4.0724 39.1899H4.79638C5.04977 39.1899 5.24887 39.3895 5.24887 39.6435C5.24887 39.8975 5.04977 40.097 4.79638 40.097H4.0724Z" fill="#86A1BA"/>
<path d="M1.17647 43C0.923077 43 0.723982 42.8004 0.723982 42.5464V25.1287C0.723982 24.8747 0.923077 24.6751 1.17647 24.6751H6.51584V18.3249H6.24434C6.04525 18.3249 5.86425 18.1888 5.80995 17.9983L5.73756 17.7443L5.48416 17.8078C4.92308 17.9439 3.52036 18.2795 3.31222 18.3249C3.09502 18.3249 1.51131 18.3249 0.452489 18.3249C0.199095 18.3249 0 18.1253 0 17.8713V13.5169C0 13.2629 0.199095 13.0633 0.452489 13.0633H3.34842C3.38462 13.0633 3.42081 13.0724 3.45701 13.0814L4.24434 13.281L4.23529 13.2719L5.72851 13.6439L5.8009 13.3899C5.8552 13.1994 6.0362 13.0633 6.23529 13.0633H10.5792C10.8326 13.0633 11.0317 13.2629 11.0317 13.5169V13.789H13.0226V11.4939L11.7014 9.7249C11.1584 8.99009 10.8507 8.08291 10.8507 7.16667C10.8416 5.53376 11.7466 4.07321 13.2036 3.34747L14 2.94831C14.0633 2.9211 14.1357 2.90296 14.1991 2.90296C14.3167 2.90296 14.4344 2.94831 14.5158 3.03903C14.5973 3.12068 14.6516 3.23861 14.6516 3.35654V6.08713C14.6516 6.64051 15.095 7.08502 15.6471 7.08502C16.1991 7.08502 16.6425 6.64051 16.6425 6.08713V3.35654C16.6425 3.28397 16.6606 3.22047 16.6878 3.15696C16.7692 3.00274 16.9231 2.90296 17.095 2.90296C17.1674 2.90296 17.2308 2.9211 17.2941 2.94831L18.0905 3.34747C19.5475 4.07321 20.4525 5.53376 20.4434 7.16667C20.4434 8.08291 20.1357 8.99009 19.5928 9.7249L18.2805 11.4939V24.6751H22.4434V18.2705L22.3258 18.1888C22.2715 18.1435 22.2081 18.1072 22.1538 18.0618C20.9683 17.1637 20.2624 15.7304 20.2715 14.2426C20.2715 12.6732 21.0407 11.1945 22.3258 10.2964C23.1312 9.73397 24.0814 9.4346 25.0588 9.4346C26.6335 9.4346 28.0995 10.2057 28.9955 11.4939C29.7285 12.5462 30.009 13.8253 29.7828 15.0863C29.5566 16.3473 28.8507 17.454 27.8009 18.1888L27.6833 18.2705V24.6751H31.1222V21.1825L30.9412 21.119C30.181 20.8468 29.6742 20.1302 29.6742 19.3228C29.6742 18.8148 29.8733 18.334 30.2262 17.9711C30.5882 17.6082 31.0588 17.4087 31.5656 17.4087H31.8371V8.50928L31.1403 6.40464C31.1131 6.323 31.1131 6.23228 31.1312 6.15063L31.8552 3.24768C31.9095 3.0481 32.0905 2.90296 32.2986 2.90296H35.1946C35.4027 2.90296 35.5837 3.0481 35.638 3.24768L36.362 6.15063C36.3801 6.23228 36.3801 6.323 36.3529 6.40464L35.6561 8.50928V17.4177H35.9276C36.733 17.4177 37.448 17.9257 37.7195 18.6878C37.8914 19.1686 37.8643 19.6857 37.6471 20.1483C37.4299 20.611 37.0407 20.9557 36.5701 21.1281L36.3891 21.1916V24.6751H38.8326C39.086 24.6751 39.2851 24.8747 39.2851 25.1287V30.2633L39.3032 30.3177C39.7738 31.4426 40.009 32.6219 40.009 33.8376C40.009 35.0532 39.7738 36.2416 39.3032 37.3665L39.276 37.4209V42.5464C39.276 42.8004 39.0769 43 38.8235 43H1.17647ZM37.8914 39.6888C37.276 40.4327 36.543 41.0768 35.7285 41.5939L34.9321 42.0928H38.371V39.1082L37.8914 39.6888ZM30.8597 25.5823C26.3167 25.5823 22.6244 29.2835 22.6244 33.8376C22.6335 38.3825 26.3258 42.0838 30.8597 42.0928C35.4027 42.0928 39.095 38.3916 39.095 33.8376C39.095 29.2835 35.4027 25.5823 30.8597 25.5823ZM1.62896 42.0928H26.7873L25.9909 41.5939C24.3891 40.5779 23.1493 39.1173 22.4163 37.3665L22.3529 37.1941H1.62896V42.0928ZM1.62896 36.2869H22.0452L21.9638 35.9513C21.638 34.5724 21.638 33.1027 21.9638 31.7238L22.0452 31.3882H1.62896V36.2869ZM1.62896 30.481H22.3529L22.4253 30.3177C23.1584 28.5669 24.3982 27.1063 26 26.0903L26.7964 25.5914H1.62896V30.481ZM35.7285 26.0812C36.543 26.5983 37.276 27.2424 37.8914 27.9863L38.371 28.5669V25.5823H34.9321L35.7285 26.0812ZM32.0362 24.6751H35.4751V21.2278H32.0362V24.6751ZM25.0679 10.3418C23.8462 10.3418 22.7149 10.9042 21.9728 11.8749C20.6697 13.5804 20.9955 16.0388 22.7059 17.3451C22.8416 17.4449 22.9774 17.5447 23.1222 17.6264C23.2579 17.708 23.3484 17.8532 23.3484 18.0165V24.6751H26.7873V18.0165C26.7873 17.8532 26.8778 17.708 27.0136 17.6264C28.2081 16.9279 28.9593 15.6397 28.9593 14.2517C28.9593 13.0451 28.3891 11.884 27.4299 11.1492C26.7421 10.6139 25.9276 10.3418 25.0679 10.3418ZM13.9367 24.6751H17.3756V11.3397C17.3756 11.2399 17.4118 11.1492 17.4661 11.0675L18.8778 9.18059C19.3122 8.6 19.5475 7.88334 19.5475 7.16667C19.5475 6.01456 18.9502 4.92595 17.9729 4.31815L17.5566 4.06414V6.0962C17.5566 7.14852 16.7059 8.00127 15.6561 8.00127C14.6063 8.00127 13.7557 7.14852 13.7557 6.0962V4.05507L13.3394 4.30907C12.362 4.92595 11.7647 6.01456 11.7647 7.16667C11.7647 7.88334 12 8.6 12.4344 9.18059L13.8462 11.0675C13.9005 11.1492 13.9367 11.2399 13.9367 11.3397V14.1338L16.0633 18.3884C16.0905 18.4519 16.1086 18.5245 16.1086 18.588C16.1086 18.7059 16.0633 18.8238 15.9728 18.9055C15.8914 18.9871 15.7738 19.0416 15.6561 19.0416H14.3801C14.3258 19.0416 14.2715 19.0416 14.2262 19.0325L13.9367 19.0143V24.6751ZM11.0407 24.6751H13.0317V18.7422L12.8869 18.6606C12.4706 18.4338 12.1086 18.1072 11.8462 17.708L11.7647 17.5992H11.0407V24.6751ZM7.42081 24.6751H10.1357V18.3249H7.42081V24.6751ZM31.5837 18.3249C31.0317 18.3249 30.5882 18.7694 30.5882 19.3228C30.5882 19.8762 31.0317 20.3207 31.5837 20.3207H35.9276C36.4796 20.3207 36.9231 19.8762 36.9231 19.3228C36.9231 18.7694 36.4796 18.3249 35.9276 18.3249H31.5837ZM11.0407 16.692H12.0362C12.2081 16.692 12.362 16.7918 12.4434 16.946C12.8054 17.6899 13.5475 18.1435 14.371 18.1435H14.9231L13.2036 14.6962H11.0407V16.692ZM32.733 8.29156C32.7511 8.33692 32.7602 8.38228 32.7602 8.43671V17.4177H34.7511V8.43671C34.7511 8.39135 34.7602 8.33692 34.7783 8.29156L35.3032 6.71308H32.2172L32.733 8.29156ZM6.69683 17.4177H10.1357V13.9705H6.69683V17.4177ZM0.904977 17.4177H2.89593V13.9705H0.904977V17.4177ZM3.8009 17.2907L5.79185 16.7918V14.5964L3.8009 14.0975V17.2907ZM32.1629 5.80591H35.3484L34.8507 3.81013H32.6606L32.1629 5.80591Z" fill="#86A1BA"/>
<path d="M26.5158 38.6456C26.2624 38.6456 26.0633 38.446 26.0633 38.192V32.3861C26.0633 32.377 26.0633 32.3589 26.0633 32.3498C26.0633 32.3407 26.0633 32.3407 26.0633 32.3316C26.0633 32.3135 26.0724 32.2954 26.0724 32.2772V32.2681C26.0814 32.25 26.0814 32.2319 26.0905 32.2137C26.0995 32.1956 26.1086 32.1774 26.1176 32.1593L26.1267 32.1502C26.1357 32.1321 26.1448 32.1139 26.1629 32.1049L26.1719 32.0958C26.181 32.0776 26.1991 32.0686 26.2081 32.0595L26.2172 32.0504L30.552 28.4308C30.6335 28.3673 30.733 28.3219 30.8416 28.3219C30.9502 28.3219 31.0498 28.3582 31.1312 28.4308L35.4661 32.0504L35.4842 32.0595C35.5023 32.0686 35.5113 32.0867 35.5204 32.0958L35.5294 32.1049C35.5385 32.123 35.5566 32.1321 35.5656 32.1502V32.1593C35.5747 32.1774 35.5837 32.1956 35.5928 32.2046L35.6018 32.2137C35.6109 32.2319 35.6199 32.25 35.6199 32.2681V32.2772C35.629 32.2954 35.629 32.3135 35.629 32.3407V32.3589C35.629 32.3679 35.629 32.3861 35.629 32.4042V38.2101C35.629 38.4641 35.4299 38.6637 35.1765 38.6637H26.5158V38.6456ZM32.3077 34.8354C32.5611 34.8354 32.7602 35.035 32.7602 35.289V37.7384H34.7511V32.8397H26.9683V37.7384H28.9593V35.289C28.9593 35.035 29.1584 34.8354 29.4118 34.8354H32.3077ZM29.8643 37.7384H31.8552V35.7426H29.8643V37.7384ZM27.7647 31.9325H33.9548L30.8597 29.347L27.7647 31.9325Z" fill="#86A1BA"/>
<path d="M24.2625 16.1023C24.0996 16.1023 23.9548 16.0116 23.8733 15.8755L23.0679 14.4694C22.9864 14.3333 22.9864 14.1519 23.0679 14.0158L23.8733 12.6097C23.9548 12.4736 24.1086 12.3829 24.2625 12.3829H25.8824C26.0453 12.3829 26.1901 12.4736 26.2715 12.6097L27.0769 14.0158C27.1584 14.1519 27.1584 14.3333 27.0769 14.4694L26.2715 15.8755C26.1901 16.0116 26.0362 16.1023 25.8824 16.1023H24.2625ZM23.9729 14.2426L24.5249 15.1951H25.6199L26.172 14.2426L25.6199 13.2901H24.5249L23.9729 14.2426Z" fill="#86A1BA"/>
</svg>
