<svg width="43" height="43" viewBox="0 0 43 43" fill="none" xmlns="http://www.w3.org/2000/svg">
<path d="M5.69625 31.7673C4.6684 31.7673 3.83549 30.9425 3.83549 29.9245C3.83549 28.9065 4.6684 28.0816 5.69625 28.0816C6.7241 28.0816 7.55701 28.9065 7.55701 29.9245C7.55701 30.9425 6.7241 31.7673 5.69625 31.7673ZM5.69625 28.9592C5.15575 28.9592 4.72157 29.3892 4.72157 29.9245C4.72157 30.4598 5.15575 30.8898 5.69625 30.8898C6.23676 30.8898 6.67093 30.4598 6.67093 29.9245C6.67093 29.3892 6.23676 28.9592 5.69625 28.9592Z" fill="#E5AE6B"/>
<path d="M32.633 31.7673C31.6051 31.7673 30.7722 30.9425 30.7722 29.9245C30.7722 28.9065 31.6051 28.0816 32.633 28.0816C33.6608 28.0816 34.4937 28.9065 34.4937 29.9245C34.4937 30.9425 33.6608 31.7673 32.633 31.7673ZM32.633 28.9592C32.0924 28.9592 31.6583 29.3892 31.6583 29.9245C31.6583 30.4598 32.0924 30.8898 32.633 30.8898C33.1735 30.8898 33.6076 30.4598 33.6076 29.9245C33.6076 29.3892 33.1735 28.9592 32.633 28.9592Z" fill="#E5AE6B"/>
<path d="M27.671 43C27.5026 43 27.352 42.9035 27.2722 42.7543L25.9786 40.1918H12.3507L11.057 42.7543C10.9773 42.9035 10.8267 43 10.6583 43H8.53173C8.28363 43 8.08869 42.8069 8.08869 42.5612V40.1918H7.82287C6.40515 40.1918 5.25325 39.051 5.25325 37.6469V34.558L5.02287 34.5229C2.63933 34.1894 0.911477 32.1271 1.00008 29.7402C1.05325 28.5731 1.54059 27.4674 2.3735 26.6337C3.21527 25.8 4.32287 25.3174 5.51021 25.2735C5.57224 25.2735 5.63426 25.2735 5.68743 25.2735C8.27477 25.2735 10.3836 27.362 10.3836 29.9245V32.6976L10.7203 32.6098C13.2279 31.9341 16.0634 31.5918 19.1646 31.5918C22.2659 31.5918 25.1014 31.9341 27.6001 32.6098L27.9368 32.6976V29.9947C27.9368 27.4322 30.0102 25.3174 32.5533 25.2735C32.5798 25.2735 32.6064 25.2735 32.633 25.2735C35.2203 25.2735 37.3292 27.362 37.3292 29.9245C37.3292 32.2149 35.5925 34.1982 33.3064 34.5316L33.076 34.5667V37.6469C33.076 39.051 31.9241 40.1918 30.5064 40.1918H30.2406V42.5612C30.2406 42.8069 30.0457 43 29.7976 43H27.671ZM27.9457 42.1225H29.3545V40.1918H26.971L27.9457 42.1225ZM8.97477 42.1225H10.3836L11.3583 40.1918H8.97477V42.1225ZM5.69629 26.151C5.64312 26.151 5.59882 26.151 5.54565 26.151C3.57857 26.2388 1.97477 27.8271 1.88616 29.7753C1.88616 29.828 1.88616 29.8718 1.88616 29.9245C1.88616 32.0043 3.59629 33.698 5.69629 33.698C5.94439 33.698 6.13933 33.891 6.13933 34.1367V37.6469C6.13933 38.5684 6.89249 39.3143 7.82287 39.3143H30.5064C31.4368 39.3143 32.19 38.5684 32.19 37.6469V34.1367C32.19 33.891 32.3849 33.698 32.633 33.698C32.6507 33.698 32.6773 33.698 32.695 33.698C33.714 33.6804 34.6621 33.268 35.371 32.5484C36.0798 31.82 36.4608 30.8722 36.4431 29.8631C36.4077 27.8184 34.6976 26.151 32.633 26.151C32.6064 26.151 32.5887 26.151 32.5621 26.151C30.4976 26.1861 28.814 27.9061 28.814 29.9947V32.9696L28.9912 33.031C29.7089 33.2767 30.2052 33.5049 30.4798 33.6278L30.0457 34.4C29.1153 33.9612 25.4469 32.4694 19.1558 32.4694C12.8558 32.4694 9.19629 33.97 8.26591 34.4L7.83173 33.6278C8.09755 33.4961 8.59376 33.2767 9.32034 33.031L9.49755 32.9696V29.9245C9.49755 29.8718 9.49755 29.828 9.49755 29.7753C9.42667 27.7394 7.75198 26.151 5.69629 26.151Z" fill="#E5AE6B"/>
<path d="M32.1899 23.3429V20.0959C32.1899 19.1745 31.4367 18.4286 30.5064 18.4286H7.82282C6.89244 18.4286 6.13928 19.1745 6.13928 20.0959V23.3429H5.2532V20.0959C5.2532 18.6918 6.4051 17.551 7.82282 17.551H30.5064C31.9241 17.551 33.076 18.6918 33.076 20.0959V23.3429H32.1899Z" fill="#E5AE6B"/>
<path d="M16.0633 21.7632H15.1773V22.6408H16.0633V21.7632Z" fill="#E5AE6B"/>
<path d="M19.6077 25.2735H18.7216V26.151H19.6077V25.2735Z" fill="#E5AE6B"/>
<path d="M12.519 25.2735H11.633V26.151H12.519V25.2735Z" fill="#E5AE6B"/>
<path d="M16.0633 28.7837H15.1773V29.6612H16.0633V28.7837Z" fill="#E5AE6B"/>
<path d="M23.1519 21.7632H22.2659V22.6408H23.1519V21.7632Z" fill="#E5AE6B"/>
<path d="M26.6962 25.2735H25.8102V26.151H26.6962V25.2735Z" fill="#E5AE6B"/>
<path d="M23.1519 28.7837H22.2659V29.6612H23.1519V28.7837Z" fill="#E5AE6B"/>
<path d="M37.595 43C37.4266 43 37.276 42.9035 37.1963 42.7543L35.9026 40.1918H34.3165V39.3143H40.4304C41.3608 39.3143 42.114 38.5684 42.114 37.6469V2.5449C42.114 1.62347 41.3608 0.877551 40.4304 0.877551H30.9494V15.6204H30.0633V0.877551H20.5823C19.6519 0.877551 18.8988 1.62347 18.8988 2.5449V2.98367H18.0127V2.5449C18.0127 1.14082 19.1646 0 20.5823 0H40.4304C41.8482 0 43.0001 1.14082 43.0001 2.5449V37.6469C43.0001 39.051 41.8482 40.1918 40.4304 40.1918H40.1646V42.5612C40.1646 42.8069 39.9697 43 39.7216 43H37.595ZM37.8697 42.1224H39.2785V40.1918H36.895L37.8697 42.1224Z" fill="#E5AE6B"/>
<path d="M12.3418 15.6204V14.2163H5.69627C5.68741 14.2163 5.66968 14.2163 5.66082 14.2163C5.54563 14.2075 5.4393 14.1549 5.35956 14.0584C5.27981 13.9706 5.24437 13.8565 5.25323 13.7424L5.96209 5.31795C5.97981 5.08979 6.17475 4.91428 6.40513 4.91428H12.3418V3.5102H13.2279V4.91428H19.1646C19.395 4.91428 19.5899 5.08979 19.6077 5.31795L20.3165 13.7424C20.3165 13.7512 20.3165 13.7688 20.3165 13.7775C20.3165 13.8916 20.2722 14.0057 20.1836 14.0847C20.1039 14.1637 19.9887 14.2163 19.8735 14.2163H13.2279V15.6204H12.3418ZM6.17475 13.3388H19.3861L18.7482 5.79183H6.81272L6.17475 13.3388Z" fill="#E5AE6B"/>
</svg>
