<svg width="44" height="38" viewBox="0 0 44 38" fill="none" xmlns="http://www.w3.org/2000/svg">
<path d="M15.4847 37.9828C15.3369 37.9828 15.2152 37.9055 15.1456 37.7681C15.076 37.6393 15.0847 37.4847 15.1717 37.3731C15.1804 37.3645 19.7284 31.0355 19.7284 31.0355L15.9891 25.84H8.59747C7.59742 25.84 6.77999 25.0328 6.77999 24.0452C6.77999 23.0576 7.59742 22.2504 8.59747 22.2504H11.9715C12.1889 22.2504 12.3629 22.4221 12.3629 22.6368C12.3629 22.8515 12.1889 23.0233 11.9715 23.0233H8.59747C8.03222 23.0233 7.56264 23.4784 7.56264 24.0452C7.56264 24.6034 8.02353 25.0671 8.59747 25.0671H35.3987C35.9639 25.0671 36.4335 24.612 36.4335 24.0452C36.4335 23.4784 35.9726 23.0233 35.3987 23.0233H14.5803C14.3629 23.0233 14.189 22.8515 14.189 22.6368C14.189 22.4221 14.3629 22.2504 14.5803 22.2504H20.1458V13.5512L20.0241 13.4739C19.6067 13.2077 19.2588 12.8642 18.9806 12.4606L18.7631 12.1428L18.5457 12.4606C17.8675 13.4567 16.7457 14.0579 15.5282 14.0579C14.3195 14.0579 13.189 13.4567 12.5107 12.4606L12.2933 12.1428L12.0759 12.4606C11.3976 13.4567 10.2758 14.0579 9.05836 14.0579C7.05827 14.0579 5.43211 12.452 5.43211 10.4768C5.43211 10.4597 5.4495 10.3738 5.4495 10.348C5.48428 10.245 6.29302 7.70305 8.71921 5.16113C10.1541 3.6583 11.8585 2.46463 13.789 1.60588C16.2065 0.541017 18.9632 0 21.9981 0C26.5461 0 30.4072 1.19367 33.4682 3.55525C33.6421 3.68407 33.6682 3.93311 33.5377 4.09627C33.4595 4.19073 33.3464 4.24226 33.2247 4.24226C33.1377 4.24226 33.0508 4.2165 32.9812 4.16497C31.3724 2.92836 29.5028 2.00949 27.4244 1.4513L26.2591 1.13356L27.1983 1.89785C27.3288 2.00949 27.4679 2.12113 27.607 2.24994C28.5114 3.07435 29.3375 4.12203 30.0593 5.37582C30.8594 6.75842 31.4942 8.26124 31.9377 9.85853L31.9985 10.0904H37.5988L37.4336 9.72972C36.9988 8.7765 36.1987 7.3252 34.8421 5.8739C34.7726 5.79661 34.7378 5.70215 34.7378 5.5991C34.7465 5.49604 34.79 5.40158 34.8682 5.33288C34.9378 5.26418 35.0335 5.22983 35.1291 5.22983C35.2422 5.22983 35.3465 5.27277 35.4161 5.35864C37.7118 7.84045 38.4858 10.2707 38.5206 10.3738C38.5293 10.4167 38.538 10.4511 38.538 10.494C38.538 12.4692 36.9118 14.075 34.9117 14.075C33.703 14.075 32.5725 13.4739 31.8942 12.4777L31.6768 12.16L31.4594 12.4777C30.7811 13.4739 29.6593 14.075 28.4419 14.075C27.2244 14.075 26.1026 13.4739 25.4243 12.4777L25.2069 12.16L24.9895 12.4777C24.7112 12.8814 24.3634 13.2249 23.946 13.4911L23.8242 13.5684V22.2676H35.3639C36.364 22.2676 37.1814 23.0748 37.1814 24.0624C37.1814 25.0499 36.364 25.8572 35.3639 25.8572H27.981L24.2417 31.0527L28.7984 37.3903C28.8854 37.5105 28.894 37.6565 28.8245 37.7853C28.7549 37.9141 28.6245 38 28.4853 38H24.8939C24.7634 38 24.6504 37.9399 24.5721 37.8368L21.9981 34.2043L19.398 37.8197C19.3284 37.9227 19.2066 37.9828 19.0762 37.9828H15.4847ZM25.12 37.2099H27.7549L19.5806 25.8314H16.9457L25.12 37.2099ZM16.2413 37.2099H18.8762L21.5198 33.5345L20.2067 31.7053L16.2413 37.2099ZM22.4764 28.5365L23.7895 30.3657L27.0505 25.8314H24.4156L22.4764 28.5365ZM21.9981 27.8667L23.459 25.84H20.5371L21.9981 27.8667ZM20.9198 22.2504H23.0677V13.9119L22.7546 13.9806C22.5025 14.0321 22.2503 14.0579 21.9894 14.0579C21.7459 14.0579 21.4937 14.0321 21.2589 13.9806H21.2328L20.9198 13.9205V22.2504ZM25.7113 11.1896C26.0417 12.4262 27.1722 13.285 28.4592 13.285C29.755 13.285 30.8854 12.4262 31.2072 11.1896L31.2942 10.8633H25.6243L25.7113 11.1896ZM12.7803 11.1896C13.1107 12.4262 14.2412 13.285 15.5282 13.285C16.8239 13.285 17.9544 12.4262 18.2762 11.1896L18.3631 10.8633H12.6933L12.7803 11.1896ZM6.3191 11.1896C6.64955 12.4262 7.78004 13.285 9.06705 13.285C10.3628 13.285 11.4933 12.4262 11.815 11.1896L11.902 10.8633H6.23214L6.3191 11.1896ZM32.1812 11.1896C32.5116 12.4262 33.6421 13.285 34.9291 13.285C36.2248 13.285 37.3553 12.4262 37.6771 11.1896L37.764 10.8633H32.0942L32.1812 11.1896ZM19.2501 11.1896C19.4675 12.0054 20.0328 12.6753 20.8154 13.0273C21.1806 13.1905 21.5894 13.285 21.9981 13.285C22.4068 13.285 22.8155 13.1991 23.1807 13.0273C23.9547 12.6753 24.5286 12.0054 24.746 11.1896L24.833 10.8633H19.1632L19.2501 11.1896ZM23.3286 1.35684C24.0677 2.44746 24.633 3.77853 25.033 5.32429C25.3808 6.68972 25.5809 8.19254 25.6243 9.807L25.633 10.0732L25.8852 10.0818H31.2072L31.1115 9.74689C30.8246 8.81085 30.4767 7.89198 30.0593 7.00746C29.3984 5.6678 28.6853 4.55141 27.8592 3.60678C26.6679 2.25853 25.3113 1.3826 23.8329 0.996158C23.7721 0.978983 23.7025 0.961808 23.6416 0.95322L23.5895 0.944633L22.972 0.824407L23.3286 1.35684ZM21.7981 1.15932C21.5459 1.45989 21.3111 1.80339 21.0763 2.18983C20.3023 3.49514 19.7458 5.07525 19.4414 6.89582C19.3023 7.69446 19.2153 8.54463 19.1806 9.41198C19.1719 9.54938 19.1719 9.68678 19.1632 9.83277L19.1545 10.099H24.8504L24.8243 9.82418C24.8069 8.87096 24.7199 7.91774 24.5634 6.9817C24.2591 5.11819 23.7025 3.51232 22.9199 2.19842C22.6851 1.80339 22.4503 1.46847 22.1981 1.16791L21.9981 0.91887L21.7981 1.15932ZM20.4067 0.944633C15.7282 1.99232 13.5977 7.45401 12.902 9.75548L12.7977 10.0904H18.3718L18.3805 9.84136C18.3892 9.59232 18.3979 9.34328 18.4153 9.07706C18.4501 8.45876 18.511 7.7374 18.6327 6.99887V6.9817C19.0762 4.17356 19.9893 2.37017 20.685 1.34825L21.0502 0.807232L20.4067 0.944633ZM16.563 1.4513C15.7282 1.67458 14.9195 1.95797 14.1629 2.29288C12.3281 3.10011 10.7106 4.23367 9.34533 5.64203C7.8757 7.16203 7.02348 8.69921 6.5539 9.72113L6.38867 10.0818H11.9889L12.0498 9.87571C12.3542 8.76791 12.7716 7.67729 13.2759 6.6296C14.2151 4.67164 15.3021 3.1774 16.6152 2.05243C16.6761 2.0009 16.737 1.94938 16.7891 1.90644L17.7196 1.14215L16.563 1.4513Z" fill="#fff"/>
<path d="M38.1379 37.9828C37.964 37.9828 37.8075 37.8626 37.764 37.6994L36.4161 32.8217H35.4074L34.0421 37.6994C33.9986 37.8712 33.8421 37.9828 33.6682 37.9828H31.0507C30.9289 37.9828 30.8159 37.9227 30.7463 37.8282C30.668 37.7338 30.642 37.605 30.6767 37.4933C30.6854 37.4676 31.9724 32.8389 31.9724 32.8389L31.6507 32.8217C31.1115 32.7873 30.6941 32.3494 30.6941 31.8255V30.1681C30.6941 29.6185 31.1463 29.1634 31.7116 29.1634H38.2597L40.3641 20.7218C40.4946 20.2066 40.9729 19.8373 41.512 19.8373C41.6077 19.8373 41.6946 19.8459 41.7816 19.8716L43.1034 20.1894C43.3991 20.2581 43.6599 20.447 43.8252 20.7218C43.9904 20.988 44.0426 21.3058 43.9643 21.5977C43.9643 21.5977 43.9382 21.6922 41.512 31.4305C41.3381 32.1175 40.7989 32.6328 40.0946 32.7873L39.825 32.8475L41.1207 37.5019C41.1555 37.6136 41.1294 37.7424 41.0511 37.8368C40.9729 37.9313 40.8598 37.9914 40.7468 37.9914H38.1379V37.9828ZM38.4336 37.2099H40.2337L39.0075 32.8217H37.2162L38.4336 37.2099ZM31.5637 37.2099H33.3638L34.5813 32.8217H32.7812L31.5637 37.2099ZM31.4768 32.0488H39.7119C40.2076 32.0488 40.6337 31.7139 40.7555 31.2416L43.2077 21.4088C43.2338 21.3058 43.2164 21.2027 43.1643 21.1168C43.1121 21.031 43.0251 20.9623 42.9208 20.9365C42.9034 20.9365 41.599 20.6188 41.599 20.6188C41.5729 20.6102 41.5381 20.6102 41.5033 20.6102C41.3207 20.6102 41.1642 20.7304 41.1207 20.9021L38.9467 29.6357C38.9032 29.8075 38.7467 29.9277 38.5641 29.9277H31.4768V32.0488Z" fill="#fff"/>
<path d="M10.328 37.9828C10.1541 37.9828 9.99753 37.8626 9.95405 37.6994L8.60616 32.8217H7.58873L6.24084 37.6994C6.19736 37.8712 6.04083 37.9828 5.86691 37.9828H3.2494C3.12765 37.9828 3.0146 37.9227 2.94504 37.8282C2.86677 37.7338 2.84068 37.605 2.87547 37.4933C2.87547 37.4847 4.17118 32.8389 4.17118 32.8389L3.9016 32.7788C3.19722 32.6328 2.64937 32.1175 2.48415 31.4305L0.0318596 21.5892C-0.0377088 21.2972 0.00577141 20.9794 0.170996 20.7132C0.336221 20.447 0.588407 20.2581 0.892768 20.1808L2.21457 19.8631C2.30153 19.8459 2.39718 19.8287 2.48415 19.8287C3.0233 19.8287 3.51028 20.198 3.64072 20.7132L5.73647 29.1548H12.2846C12.8411 29.1548 13.302 29.6014 13.302 30.1595V31.8169C13.302 32.3494 12.8846 32.7873 12.3455 32.8131L12.0237 32.8303L13.3194 37.4847C13.3542 37.5964 13.3281 37.7166 13.2499 37.8197C13.1716 37.9141 13.0585 37.9742 12.9455 37.9742H10.328V37.9828ZM10.6236 37.2099H12.4324L11.2063 32.8217H9.4062L10.6236 37.2099ZM3.76246 37.2099H5.56255L6.77999 32.8217H4.97991L3.76246 37.2099ZM2.49284 20.6016C2.45806 20.6016 2.43197 20.6016 2.39718 20.6102L1.07539 20.9279C0.971033 20.9537 0.884072 21.0138 0.831896 21.1082C0.77972 21.1941 0.762328 21.2972 0.788416 21.4002L3.2407 31.233C3.36245 31.7053 3.78855 32.0402 4.28423 32.0402H12.5194V29.9191H5.43211C5.24949 29.9191 5.09296 29.7989 5.04948 29.6271L2.87547 20.8936C2.83199 20.7304 2.67546 20.6016 2.49284 20.6016Z" fill="#fff"/>
</svg>
