<svg width="40" height="40" viewBox="0 0 40 40" fill="none" xmlns="http://www.w3.org/2000/svg">
<path d="M0 40V39.2093H1.48617L1.55731 39.1382C2.63241 38.0154 3.81028 36.9796 5.05929 36.0466C8.05534 33.8011 10.9407 32.5203 13.6364 32.2514C13.6443 32.2514 13.6996 32.2435 13.6996 32.2435L13.913 32.2198V29.6659L10.2688 26.7721L10.1739 26.78C9.71542 26.8353 9.24111 26.8591 8.7747 26.8591H8.75889C8.36364 26.8591 7.96838 26.8353 7.58103 26.7958C5.32806 26.5586 3.59684 25.6177 2.58498 24.0917C0.205534 20.4942 1.77075 13.8446 1.83399 13.5679C1.87352 13.386 2.03162 13.2674 2.22134 13.2674C2.24506 13.2674 2.26877 13.2674 2.28458 13.2753C2.56917 13.3228 9.29644 14.4772 11.6838 18.0747C12.6957 19.6086 12.8854 21.5616 12.2213 23.7359C11.9605 24.5898 11.5968 25.42 11.1462 26.1949L11.0435 26.3688L13.9209 28.6539V15.8292L13.7866 15.766C12.9802 15.3706 12.2213 14.8804 11.5336 14.3111C9.78656 12.8642 8.86166 11.1326 8.86166 9.29037C8.86166 7.46393 9.73913 5.36074 11.4704 3.03617C12.2451 1.99249 13.1146 1.00415 14.0474 0.102787C14.1186 0.0395335 14.2134 0 14.3162 0C14.419 0 14.5138 0.0395335 14.585 0.102787C14.7905 0.292548 19.7628 4.97331 19.7628 9.29037C19.7628 11.1247 18.8379 12.8642 17.0909 14.3111C16.3953 14.8804 15.6364 15.3706 14.8379 15.766L14.7036 15.8292V28.0372L17.5889 25.7521L17.4862 25.5782C17.0356 24.8033 16.6719 23.9731 16.4111 23.1192C15.7549 20.9448 15.9368 18.9919 16.9486 17.458C19.3281 13.8604 26.0553 12.7061 26.3478 12.6586C26.3715 12.6586 26.3953 12.6507 26.4111 12.6507C26.5929 12.6507 26.751 12.7772 26.7984 12.9512C26.8696 13.2358 28.4348 19.8774 26.0474 23.475C25.0356 25.0089 23.3043 25.9419 21.0514 26.1791C20.664 26.2186 20.2609 26.2423 19.8735 26.2423H19.8577C19.3913 26.2423 18.917 26.2186 18.4585 26.1633L18.3636 26.1554L14.7036 29.0413V32.2119L14.9328 32.2198C18.5059 32.3938 22.9565 34.489 26.0553 36.2206L26.4743 36.4499L26.1344 34.0146V33.9988C25.8103 32.7654 25.8893 31.4924 26.3557 30.3064L27.7787 26.7246C27.8419 26.5744 27.9842 26.4716 28.1502 26.4716C28.1976 26.4716 28.2451 26.4795 28.2925 26.5033L30.2767 27.2939L32.5455 21.5616L32.3241 21.4746C32.1186 21.3955 32.0237 21.1662 32.1028 20.9607L34.9012 13.9079C34.9644 13.7577 35.1067 13.6549 35.2727 13.6549C35.3202 13.6549 35.3676 13.6628 35.415 13.6865L38.3557 14.8488C38.5613 14.9278 38.6561 15.1571 38.5771 15.3627L35.7787 22.4234C35.7154 22.5736 35.5731 22.6685 35.415 22.6685C35.3676 22.6685 35.3202 22.6606 35.2727 22.6369L35.0514 22.5499L32.7826 28.2823L34.7668 29.0729C34.8617 29.1125 34.9407 29.1836 34.9802 29.2864C35.0198 29.3892 35.0277 29.492 34.9881 29.5869L33.4704 33.4137C33.0593 34.4416 32.3715 35.335 31.4862 35.9913C31.4783 35.9992 31.4704 35.9992 31.4625 36.0071L28.6798 37.7624L28.996 37.9601C29.9368 38.5531 30.5929 39.0038 30.8379 39.1698L30.9012 39.2093H40V40H0ZM14.4664 33.0026C14.2055 33.0026 13.9526 33.0184 13.7154 33.0421C9.25692 33.4849 5.09881 36.8452 3.01976 38.7982L2.58498 39.2093H29.4625L28.7747 38.7745C25.3676 36.6159 18.9881 33.0026 14.4664 33.0026ZM27.083 30.6068C26.6798 31.6268 26.6166 32.7733 26.9012 33.8328C26.9091 33.8486 26.9091 33.8644 26.9091 33.8802L27.336 36.9559L27.4308 37.0113C27.5494 37.0824 27.6601 37.1457 27.7708 37.2168L27.9051 37.2959L28.0316 37.201C28.0395 37.1931 28.0474 37.1931 28.0553 37.1852L31.004 35.3271L31.0119 35.3192C31.7787 34.7499 32.3636 33.983 32.7115 33.0975L34.0791 29.6422L28.3478 27.373L27.083 30.6068ZM30.996 27.5865L32.0237 27.9976L34.2925 22.2653L33.2648 21.8541L30.996 27.5865ZM2.4664 14.3665C2.10277 16.272 1.45455 20.9844 3.2332 23.6648C4.55336 25.6572 6.96443 26.0763 8.75889 26.0763C9.3913 26.0763 9.91304 26.021 10.2372 25.9814L10.3478 25.9656L10.4032 25.8707C11.0119 24.8508 12.8458 21.2927 11.004 18.5175C10.1107 17.1654 8.3004 15.9636 5.78656 15.0544C4.79842 14.6986 3.77075 14.406 2.74308 14.1846L2.50593 14.1293L2.4664 14.3665ZM25.8656 13.5521C23.9763 13.9632 19.3755 15.2046 17.6047 17.885C15.7708 20.6602 17.5968 24.2182 18.2055 25.2382L18.2609 25.341L18.3715 25.3568C18.6957 25.3963 19.2095 25.4517 19.834 25.4517C21.6364 25.4517 24.0553 25.0326 25.3755 23.0401C26.2688 21.6881 26.6719 19.5612 26.5296 16.8808C26.4664 15.8292 26.3399 14.7776 26.1423 13.7418L26.0949 13.5046L25.8656 13.5521ZM32.9723 20.8895L35.1779 21.7671L37.6838 15.4497L35.4783 14.572L32.9723 20.8895ZM14.1423 1.11484C12.7905 2.49852 9.64427 6.07235 9.64427 9.29037C9.64427 12.6349 13.1383 14.572 14.2055 15.0939L14.3083 15.1413L14.4111 15.0939C15.1937 14.7144 15.9368 14.24 16.6087 13.6786C18.1739 12.374 18.9723 10.8954 18.9723 9.29037C18.9723 7.66159 18.1265 5.6612 16.5217 3.50267C15.8972 2.66456 15.2095 1.85807 14.4822 1.11484L14.3083 0.940897L14.1423 1.11484Z" fill="#fff"/>
<path d="M14.3083 11.5359C14.2213 11.5359 14.1423 11.5122 14.0711 11.4568L11.7312 9.70152L12.2055 9.06899L14.3083 10.6424L16.4111 9.06899L16.8854 9.70152L14.5455 11.4568C14.4743 11.5122 14.3953 11.5359 14.3083 11.5359Z" fill="#fff"/>
<path d="M14.3083 8.3732C14.2292 8.3732 14.1502 8.34948 14.087 8.30994L12.3874 7.17928L12.8221 6.52303L14.3083 7.50346L15.7866 6.51512L16.2213 7.17138L14.5217 8.30204C14.4585 8.34948 14.3874 8.3732 14.3083 8.3732Z" fill="#fff"/>
<path d="M20.2372 22.2732C20.0632 22.2732 19.9051 22.1546 19.8577 21.9885L19.0593 19.1737L19.8182 18.9603L20.5375 21.4904L23.1621 21.4983L23.1542 22.289L20.2372 22.2732Z" fill="#fff"/>
<path d="M22.1265 19.7509C21.9684 19.743 21.8261 19.6402 21.7787 19.4821L21.1067 17.5529L21.8498 17.292L22.4348 18.9761L24.2134 19.0868L24.166 19.8774L22.1265 19.7509Z" fill="#fff"/>
<path d="M5.45455 22.1309L8.08696 22.115L8.80632 19.5849L9.56522 19.7984L8.7668 22.6132C8.71937 22.7792 8.56126 22.8978 8.38735 22.8978L5.46245 22.9136L5.45455 22.1309Z" fill="#fff"/>
<path d="M4.40316 19.7193L6.18182 19.6086L6.7668 17.9245L7.51779 18.1854L6.84585 20.1146C6.79051 20.2649 6.65613 20.3677 6.49802 20.3835L4.4585 20.51L4.40316 19.7193Z" fill="#fff"/>
<path d="M15.7866 36.521C15.6759 35.9834 15.1937 35.5722 14.6245 35.5722C14.0553 35.5722 13.5731 35.9834 13.4625 36.521H12.664C12.7826 35.5406 13.6206 34.7816 14.6245 34.7816C15.6285 34.7816 16.4664 35.5406 16.585 36.521H15.7866Z" fill="#fff"/>
<path d="M21.4783 37.4699C21.3676 36.9322 20.8854 36.521 20.3162 36.521C19.747 36.521 19.2648 36.9322 19.1542 37.4699H18.3557C18.4743 36.4894 19.3123 35.7304 20.3162 35.7304C21.3202 35.7304 22.1581 36.4894 22.2767 37.4699H21.4783Z" fill="#fff"/>
<path d="M10.7273 37.4699C10.6166 36.9322 10.1344 36.521 9.56522 36.521C8.99605 36.521 8.51383 36.9322 8.40316 37.4699H7.60474C7.72332 36.4894 8.56126 35.7304 9.56522 35.7304C10.5692 35.7304 11.4071 36.4894 11.5257 37.4699H10.7273Z" fill="#fff"/>
<path d="M26.9565 9.00573C25.6917 9.00573 24.664 7.97786 24.664 6.71279C24.664 5.44772 25.6917 4.41985 26.9565 4.41985C28.2213 4.41985 29.249 5.44772 29.249 6.71279C29.249 7.97786 28.2213 9.00573 26.9565 9.00573ZM26.9565 5.21052C26.1265 5.21052 25.4545 5.88259 25.4545 6.71279C25.4545 7.54299 26.1265 8.21506 26.9565 8.21506C27.7866 8.21506 28.4585 7.54299 28.4585 6.71279C28.4585 5.88259 27.7866 5.21052 26.9565 5.21052Z" fill="#fff"/>
<path d="M5.45455 6.3728C5.41502 6.3728 5.3834 6.36489 5.34387 6.35699L3.28854 5.75608L1.24111 6.35699C1.20158 6.36489 1.16996 6.3728 1.13043 6.3728C1.02767 6.3728 0.924901 6.33327 0.853755 6.2542C0.750988 6.15932 0.711462 6.00909 0.750988 5.86677L1.35178 3.81894L0.750988 1.76319C0.727273 1.69203 0.727273 1.61297 0.750988 1.54181C0.798419 1.37577 0.956522 1.25717 1.13043 1.25717C1.16996 1.25717 1.20158 1.26507 1.24111 1.27298L3.29644 1.87389L5.35178 1.27298C5.3913 1.26507 5.42292 1.25717 5.46245 1.25717C5.50198 1.25717 5.5336 1.26507 5.57312 1.27298C5.77866 1.33623 5.90514 1.55762 5.8419 1.76319L5.24111 3.81894L5.8419 5.87468C5.86561 5.94584 5.86561 6.02491 5.8419 6.09607C5.78656 6.2542 5.62846 6.3728 5.45455 6.3728ZM2.14229 3.70824C2.16601 3.7794 2.16601 3.85847 2.14229 3.92963L1.71542 5.40028L3.18577 4.97331C3.2253 4.96541 3.25692 4.9575 3.29644 4.9575C3.33597 4.9575 3.36759 4.96541 3.40711 4.97331L4.87747 5.40028L4.45059 3.92963C4.42688 3.85847 4.42688 3.7794 4.45059 3.70824L4.87747 2.2376L3.40711 2.66456C3.36759 2.67246 3.33597 2.68037 3.29644 2.68037C3.25692 2.68037 3.2253 2.67246 3.18577 2.66456L1.71542 2.2376L2.14229 3.70824Z" fill="#fff"/>
<path d="M21.6601 29.0888H20.8696V29.8794H21.6601V29.0888Z" fill="#fff"/>
</svg>
